<svg xmlns="http://www.w3.org/2000/svg" width="171" height="38" viewBox="0 0 171 38" fill="none"><path d="M57.6185 18.5836L50.4601 28.752C49.7574 29.7162 48.6156 30.3298 47.342 30.3298C46.1123 30.3298 44.9705 29.7162 44.2678 28.7958L38.0317 20.9942L46.5076 10.3437C47.7812 8.76584 49.7135 7.75777 51.9093 7.75777C55.7301 7.75777 58.8481 10.8696 58.8481 14.6828C58.8481 16.1292 58.409 17.444 57.6185 18.5836ZM22.2657 28.7958C21.563 29.7162 20.4651 30.3298 19.1915 30.3298C17.9179 30.3298 16.7761 29.7162 16.0734 28.752L8.91505 18.5836C8.12455 17.4879 7.68539 16.1292 7.68539 14.639C7.68539 10.8258 10.8035 7.71394 14.6242 7.71394C16.82 7.71394 18.7524 8.72201 20.0259 10.2999L28.5018 20.9504L22.2657 28.7958ZM51.8654 0C46.9028 0 42.5551 2.45444 39.8762 6.17992L33.2448 15.0334L26.6573 6.17992C23.9784 2.45444 19.6307 0 14.6681 0C6.54356 0 0 6.57438 0 14.639C0 17.7508 0.966163 20.6436 2.63499 23.0103L9.8373 33.2664C11.9453 36.1153 15.3708 37.9999 19.1915 37.9999C22.4413 37.9999 25.3398 36.6851 27.4478 34.5374C27.887 34.0991 28.2822 33.617 28.6775 33.0911L33.2887 27.3494L37.9 33.0911C38.2513 33.617 38.6905 34.0991 39.1296 34.5374C41.2376 36.6851 44.18 37.9999 47.3859 37.9999C51.2067 37.9999 54.6321 36.1591 56.7401 33.2664L63.9424 23.0103C65.6113 20.6436 66.5774 17.7508 66.5774 14.639C66.5335 6.57438 59.946 0 51.8654 0Z" fill="#14C8A5"></path><path d="M94.2871 24.9821L90.5103 11.5703H85.1524L81.4195 24.9821L78.1697 11.5703H73.3828L78.8285 30.2416H83.8349L87.8313 16.26L91.8277 30.2416H96.8342L102.368 11.5703H97.5808L94.2871 24.9821Z" fill="white"></path><path d="M118.354 24.8483C117.344 25.8564 116.071 26.3823 114.533 26.3823C112.996 26.3823 111.679 25.8564 110.713 24.8045C109.703 23.7526 109.22 22.4377 109.22 20.816C109.22 19.1943 109.703 17.8356 110.713 16.8276C111.723 15.7757 112.996 15.2497 114.533 15.2497C116.071 15.2497 117.344 15.7757 118.354 16.8276C119.364 17.8795 119.847 19.2382 119.847 20.8598C119.847 22.5254 119.364 23.8402 118.354 24.8483ZM120.287 12.357C118.925 11.5242 117.344 11.0859 115.587 11.0859C114.006 11.0859 112.733 11.3927 111.723 12.0064C110.713 12.62 109.922 13.3651 109.307 14.1978L109.22 11.5242H104.477V37.9971H109.307V27.6534C109.966 28.6176 110.801 29.3627 111.855 29.8887C112.909 30.4146 114.138 30.6776 115.544 30.6776C117.3 30.6776 118.881 30.2393 120.243 29.4065C121.604 28.5738 122.702 27.3904 123.536 25.944C124.327 24.4977 124.722 22.7883 124.722 20.9037C124.722 19.019 124.327 17.3535 123.536 15.8633C122.746 14.3731 121.648 13.1897 120.287 12.357Z" fill="white"></path><path d="M140.931 24.8921C139.921 25.944 138.648 26.47 137.11 26.47C135.573 26.47 134.3 25.944 133.29 24.8921C132.28 23.8402 131.797 22.4815 131.797 20.8599C131.797 19.2382 132.28 17.8795 133.29 16.8714C134.3 15.8633 135.573 15.3374 137.11 15.3374C138.648 15.3374 139.965 15.8633 140.931 16.9152C141.941 17.9671 142.424 19.282 142.424 20.9037C142.424 22.5254 141.941 23.8841 140.931 24.8921ZM142.337 14.1102C141.678 13.1459 140.843 12.4008 139.789 11.8749C138.735 11.3489 137.506 11.0859 136.1 11.0859C134.344 11.0859 132.763 11.5242 131.401 12.357C130.04 13.1897 128.942 14.3293 128.108 15.8195C127.317 17.2659 126.922 18.9752 126.922 20.8599C126.922 22.7445 127.317 24.41 128.108 25.9002C128.898 27.3904 129.996 28.53 131.401 29.4065C132.763 30.2393 134.344 30.6776 136.1 30.6776C137.681 30.6776 138.955 30.3708 139.965 29.7572C140.975 29.1436 141.766 28.3985 142.38 27.5657L142.468 30.2393H147.211V11.5681H142.424L142.337 14.1102Z" fill="white"></path><path d="M170.349 11.5703H165.21L159.765 24.7191L154.539 11.5703H149.312L156.603 28.9705H158.184L157.481 30.7675C156.647 32.5645 156.076 33.3534 154.934 33.6602C154.407 33.7917 153.66 33.9232 152.782 33.9232H150.41V37.9555H152.782C155.549 37.9555 157.217 37.7364 158.447 36.8598C159.677 35.9832 160.599 34.3177 161.741 31.5126L162.795 28.9267L170.349 11.5703Z" fill="white"></path></svg>